<svg width="240" height="240" fill="none" xmlns="http://www.w3.org/2000/svg"><path d="M120 0l7.158 6.225L135.04.946l6.321 7.073 8.482-4.249 5.385 7.81 8.947-3.153 4.364 8.423 9.271-2.007 3.274 8.904 9.45-.829 2.132 9.243 9.48.363.956 9.438 9.36 1.547-.234 9.483 9.091 2.709-1.42 9.38 8.68 3.825-2.584 9.128 8.132 4.884-3.709 8.731 7.456 5.865-4.773 8.198 6.662 6.753L234 120l5.763 7.535-6.662 6.753 4.773 8.198-7.456 5.865 3.709 8.731-8.132 4.884 2.584 9.128-8.68 3.826 1.42 9.379-9.091 2.709.234 9.483-9.36 1.547-.956 9.438-9.48.363-2.132 9.243-9.45-.829-3.274 8.904-9.271-2.007-4.364 8.423-8.947-3.153-5.385 7.81-8.482-4.249-6.321 7.073-7.882-5.279L120 240l-7.158-6.225-7.882 5.279-6.322-7.073-8.48 4.249-5.386-7.81-8.947 3.153-4.364-8.423-9.271 2.007-3.274-8.904-9.45.829-2.132-9.243-9.48-.363-.956-9.438-9.36-1.547.234-9.483-9.091-2.709 1.42-9.379-8.68-3.826 2.585-9.128-8.133-4.884 3.709-8.731-7.456-5.865 4.773-8.198-6.662-6.753L6 120l-5.763-7.535 6.662-6.753-4.773-8.198 7.456-5.865-3.709-8.731 8.133-4.884-2.585-9.128 8.68-3.826-1.42-9.38 9.091-2.708-.234-9.483 9.36-1.547.956-9.438 9.48-.363 2.132-9.243 9.45.829 3.274-8.904 9.271 2.007 4.364-8.423 8.947 3.153 5.385-7.81 8.481 4.25L104.96.945l7.882 5.279L120 0z" fill="#F90"/></svg>